<svg id="Layer_1" enable-background="new 0 0 511.994 511.994" height="512" viewBox="0 0 511.994 511.994" width="512" xmlns="http://www.w3.org/2000/svg"><g><path d="m307.321 180.008-102.502-.072-136.643 55.087v82.109l148.628-22.739 78.518.036 148.492 22.701v-82.107z" fill="#e1ebf0"/><path d="m307.321 180.008-51.324-.036v114.439l39.325.018 148.492 22.701v-82.107z" fill="#b4d2d7"/><path d="m304.012 359.408 14.443-153.303c5.018-42.438-4.014-86.16-25.438-123.136-7.607-13.13-21.76-21.287-36.935-21.287s-29.327 8.157-36.935 21.287c-21.424 36.976-30.455 80.697-25.437 123.135l14.432 153.21-24.849 27.599v50.293h145.437v-50.284z" fill="#fff5f5"/><path d="m328.73 386.924-24.718-27.515 14.443-153.303c5.018-42.438-4.014-86.16-25.438-123.136-7.607-13.13-21.76-21.287-36.935-21.287-.029 0-.058.003-.087.003v375.521h72.733v-50.283z" fill="#e1ebf0"/><path d="m437.014 74.98c-48.351-48.351-112.639-74.98-181.017-74.98s-132.666 26.629-181.018 74.98c-48.351 48.351-74.979 112.638-74.979 181.017s26.628 132.666 74.979 181.017c48.352 48.351 112.638 74.979 181.017 74.979s132.666-26.628 181.018-74.979c48.352-48.352 74.979-112.638 74.979-181.017s-26.627-132.666-74.979-181.017zm-407.014 181.017c0-60.366 23.508-117.119 66.193-159.804s99.438-66.193 159.804-66.193c55.338 0 107.631 19.768 148.842 55.941l-318.898 318.898c-36.173-41.211-55.941-93.504-55.941-148.842zm385.8 159.804c-42.686 42.685-99.438 66.193-159.804 66.193-55.338 0-107.631-19.768-148.842-55.941l318.898-318.898c36.174 41.212 55.942 93.505 55.942 148.843 0 60.365-23.508 117.117-66.194 159.803z" fill="#ff415b"/><path d="m437.014 74.98c-48.351-48.351-112.639-74.98-181.017-74.98v30c55.338 0 107.631 19.768 148.842 55.941l-148.842 148.843v42.426l170.055-170.055c36.174 41.212 55.942 93.505 55.942 148.843 0 60.366-23.508 117.119-66.193 159.804s-99.438 66.193-159.804 66.193v30c68.379 0 132.666-26.628 181.018-74.979 48.352-48.352 74.979-112.638 74.979-181.017s-26.628-132.668-74.98-181.019z" fill="#e50058"/></g></svg>