<svg id="Capa_1" enable-background="new 0 0 512 512" height="512" viewBox="0 0 512 512" width="512" xmlns="http://www.w3.org/2000/svg"><g><g><path d="m360.397 63.072v-37.25c0-2.808-2.276-5.085-5.084-5.085h-99.313v42.335l52.199 9z" fill="#dc5c65"/><path d="m256 81.376h99.313c2.808 0 5.084-2.276 5.084-5.084v-13.22h-104.397z" fill="#b94551"/><path d="m256 145.149c-4.212 0-7.627-3.414-7.627-7.627v-129.895c0-4.213 3.415-7.627 7.627-7.627s7.627 3.414 7.627 7.627v129.896c0 4.212-3.415 7.626-7.627 7.626z" fill="#9d7d52"/><path d="m14.056 493.696 241.944 9 241.944-9c5.657 0 10.243-4.586 10.243-10.243v-151.92c0-6.058-2.701-11.801-7.367-15.665l-231.849-191.977c-7.525-6.231-18.417-6.231-25.942 0l-231.849 191.977c-4.666 3.864-7.367 9.607-7.367 15.665v151.921c0 5.656 4.586 10.242 10.243 10.242z" fill="#7c7f2a"/><path d="m497.944 493.696h-241.944-241.944c-5.657 0-10.243-4.586-10.243-10.243v18.304c0 5.657 4.586 10.243 10.243 10.243h178.041l63.903-9 63.903 9h178.041c5.657 0 10.243-4.586 10.243-10.243v-18.304c0 5.657-4.586 10.243-10.243 10.243z" fill="#6a6925"/><path d="m256 332.933h-58.818c-2.808 0-5.084 2.276-5.084 5.085v155.678l31.951 9 31.951-9 9-83.374z" fill="#0a789b"/><path d="m192.097 512h63.903l9-9.304-9-9h-63.903z" fill="#0a617d"/><path d="m76.634 435.758h53.803c4.329 0 7.838-6.255 7.838-16.838v-35.499c0-4.329-3.509-7.838-7.838-7.838h-53.803c-4.329 0-7.838 3.509-7.838 7.838v35.499c0 13.071 3.51 16.838 7.838 16.838z" fill="#f7e471"/><path d="m224.134 252.118c1.205 1.435 1.805 3.282 1.674 5.151l-.921 13.147h62.228l-.921-13.147c-.131-1.869.469-3.716 1.674-5.151l13.176-15.697c3.434-4.092 1.395-10.367-3.788-11.658l-19.886-4.955c-1.818-.453-3.389-1.594-4.382-3.184l-10.857-17.381c-2.83-4.531-9.428-4.531-12.258 0l-10.857 17.381c-.993 1.589-2.564 2.731-4.382 3.184l-19.886 4.955c-5.184 1.292-7.222 7.567-3.788 11.658z" fill="#f7e471"/><path d="m319.903 493.696-32.259 9-31.644-9v-160.763h58.818c2.808 0 5.084 2.276 5.084 5.084v155.679z" fill="#0a617d"/><path d="m256 493.696h63.903v18.304h-63.903z" fill="#08475e"/><path d="m130.437 426.758h-53.803c-4.329 0-7.838-3.509-7.838-7.838v18.304c0 4.329 3.509 7.838 7.838 7.838h53.803c4.329 0 7.838-3.509 7.838-7.838v-18.304c0 4.329-3.509 7.838-7.838 7.838z" fill="#f1cb66"/><path d="m381.563 435.758h53.803c4.329 0 7.838-6.255 7.838-16.838v-35.499c0-4.329-3.509-7.838-7.838-7.838h-53.803c-4.329 0-7.838 3.509-7.838 7.838v35.499c0 13.071 3.509 16.838 7.838 16.838z" fill="#f7e471"/><path d="m435.365 426.758h-53.802c-4.329 0-7.838-3.509-7.838-7.838v18.304c0 4.329 3.509 7.838 7.838 7.838h53.802c4.329 0 7.838-3.509 7.838-7.838v-18.304c.001 4.329-3.509 7.838-7.838 7.838z" fill="#f1cb66"/><g><path d="m287.114 270.416-28.406-11.482c-1.737-.702-3.679-.702-5.416 0l-28.406 11.482-.511 7.297c-.373 5.329 4.965 9.207 9.917 7.205l19-7.68c1.737-.702 3.679-.702 5.416 0l19 7.68c4.953 2.002 10.291-1.876 9.917-7.205z" fill="#f1cb66"/></g></g></g></svg>