<?xml version="1.0" encoding="utf-8"?>
<!-- Generator: Adobe Illustrator 17.0.0, SVG Export Plug-In . SVG Version: 6.00 Build 0)  -->
<!DOCTYPE svg PUBLIC "-//W3C//DTD SVG 1.1//EN" "http://www.w3.org/Graphics/SVG/1.1/DTD/svg11.dtd">
<svg version="1.1" id="Capa_1" xmlns="http://www.w3.org/2000/svg" xmlns:xlink="http://www.w3.org/1999/xlink" x="0px" y="0px"
	 width="64px" height="64px" viewBox="0 0 64 64" enable-background="new 0 0 64 64" xml:space="preserve">
<g>
	<path d="M46.873,39.297l-1.688,9.188c8.974,2.679-0.962,20.495,9.314,6.171C62.987,42.827,52.233,39.981,46.873,39.297z"/>
	<path d="M19.086,48.502l-1.963-9.162c-5.453,0.757-15.624,3.721-7.305,15.317C20.075,68.955,10.196,51.231,19.086,48.502z"/>
	<path d="M47.777,22.002C47.034,15.12,39.143,3,32.833,3h-1.167C25.357,3,16.56,15.12,15.73,22.002
		c-0.066,0.548,0.03,1.436,0.146,1.976l3.247,15.152l1.939,9.048l1.395,6.511c0.116,0.54,0.657,0.978,1.21,0.978h17.167
		c0.552,0,1.081-0.44,1.181-0.984l1.196-6.509l1.665-9.065l2.778-15.126C47.752,23.44,47.836,22.551,47.777,22.002z M32.083,46.288
		c-3.36,0-6.083-10.967-6.083-19.561c0-8.594,2.724-11.561,6.083-11.561s6.083,2.967,6.083,11.561
		C38.167,35.321,35.443,46.288,32.083,46.288z"/>
</g>
</svg>
