<svg id="Capa_1" enable-background="new 0 0 512 512" height="512" viewBox="0 0 512 512" width="512" xmlns="http://www.w3.org/2000/svg"><g><g fill="#dc5c65"><path d="m255.97 8h.03.03z"/><path d="m60.344 195.49c0 184.175 195.656 299.492 195.656 299.492s195.656-119.997 195.656-299.492c-4.394-104.278-90.301-187.474-195.656-187.49-105.355.016-191.262 83.212-195.656 187.49zm195.686-135.352c79.256 0 143.737 64.48 143.737 143.738 0 79.257-64.48 143.737-143.737 143.737s-143.738-64.48-143.738-143.737c0-79.258 64.48-143.738 143.738-143.738z"/></g><g><g><path d="m255.969 512s202.194-122.596 202.194-309.806c.001-111.669-90.525-202.194-202.194-202.194h.061c-111.668 0-202.194 90.525-202.194 202.194 0 187.21 202.194 309.806 202.194 309.806z" fill="#dc5c65"/><g fill="#b94551"><path d="m256.03 512s-.014-.008-.03-.019c-.017.01-.031.019-.031.019z"/><path d="m256 493.401s-195.075-119.455-201.967-299.864c-.121 2.872-.197 5.755-.197 8.657 0 185.998 199.578 308.212 202.164 309.787 2.585-1.575 202.164-123.789 202.164-309.787 0-2.902-.076-5.785-.197-8.657-6.892 180.408-201.967 299.864-201.967 299.864z"/></g><circle cx="256.03" cy="202.194" fill="#f7e471" r="140.632"/><path d="m256.031 53.82c-81.814 0-148.374 66.56-148.374 148.375 0 81.813 66.56 148.374 148.374 148.374 81.813 0 148.374-66.56 148.374-148.374-.001-81.815-66.561-148.375-148.374-148.375zm132.658 140.633h-35.908c-3.755-47.359-41.65-85.254-89.009-89.009v-35.909c67.123 3.875 121.042 57.794 124.917 124.918zm-140.4 15.483v23.603c-11.595-2.865-20.739-12.008-23.604-23.603zm-23.604-15.483c2.865-11.595 12.008-20.739 23.604-23.604v23.604zm39.087 15.483h23.604c-2.865 11.595-12.008 20.738-23.604 23.603zm0-15.483v-23.604c11.595 2.865 20.739 12.008 23.604 23.604zm-15.483-39.396c-20.151 3.299-36.097 19.244-39.396 39.396h-34.06c3.672-38.812 34.644-69.784 73.456-73.456zm-39.396 54.879c3.299 20.151 19.244 36.096 39.396 39.395v34.061c-38.812-3.672-69.784-34.643-73.456-73.455h34.06zm54.879 39.395c20.151-3.299 36.097-19.244 39.396-39.395h34.061c-3.672 38.812-34.645 69.784-73.456 73.456v-34.061zm39.396-54.878c-3.299-20.151-19.244-36.097-39.396-39.396v-34.061c38.812 3.672 69.784 34.644 73.456 73.457zm-54.879-124.918v35.909c-47.358 3.755-85.253 41.65-89.008 89.009h-35.909c3.875-67.124 57.793-121.043 124.917-124.918zm-124.918 140.401h35.909c3.756 47.358 41.65 85.252 89.008 89.008v35.909c-67.123-3.875-121.041-57.793-124.917-124.917zm140.401 124.917v-35.909c47.358-3.755 85.253-41.65 89.009-89.008h35.908c-3.875 67.124-57.794 121.042-124.917 124.917z" fill="#7c7f2a"/></g></g></g></svg>