<svg height="512pt" viewBox="0 0 512 512" width="512pt" xmlns="http://www.w3.org/2000/svg"><path d="m512 134v-1c0-8.285156-6.714844-15-15-15h-226v-30.578125c17.460938-6.195313 30-22.867187 30-42.421875 0-24.8125-20.1875-45-45-45s-45 20.1875-45 45c0 19.554688 12.539062 36.226562 30 42.421875v30.578125h-226c-8.285156 0-15 6.714844-15 15v1c0 96.097656 85.832031 165.375 181 187.515625v40.484375h-15c-8.285156 0-15 6.714844-15 15v23.785156l-81.214844 81.214844h-23.785156c-8.285156 0-15 6.714844-15 15s6.714844 15 15 15h420c8.285156 0 15-6.714844 15-15s-6.714844-15-15-15h-23.785156l-81.214844-81.214844v-23.785156c0-8.285156-6.714844-15-15-15h-15v-40.484375c94.980469-22.097656 181-91.351563 181-187.515625zm-256-104c8.269531 0 15 6.730469 15 15s-6.730469 15-15 15-15-6.730469-15-15 6.730469-15 15-15zm-225.203125 118h450.40625c-6.914063 60.609375-56.710937 106.296875-113.109375 130.132812 19.433594-21.210937 34.675781-48.054687 43.757812-78.894531 2.34375-7.949219-2.203124-16.289062-10.148437-18.628906s-16.285156 2.203125-18.628906 10.152344c-13.601563 46.183593-43.109375 81.652343-79.285157 98.480469.273438-.570313.550782-1.132813.820313-1.71875 10.6875-23.058594 18.59375-54.445313 22.871094-90.769532.972656-8.226562-4.914063-15.683594-13.140625-16.652344-8.214844-.972656-15.683594 4.914063-16.652344 13.140626-8.886719 75.445312-31.535156 106.757812-41.6875 106.757812s-32.800781-31.3125-41.6875-106.753906c-.96875-8.226563-8.421875-14.117188-16.652344-13.144532-8.226562.96875-14.109375 8.425782-13.140625 16.652344 4.277344 36.324219 12.1875 67.710938 22.871094 90.769532.269531.585937.546875 1.148437.820313 1.722656-36.175782-16.828125-65.683594-52.296875-79.285157-98.484375-2.339843-7.945313-10.683593-12.492188-18.628906-10.148438-7.945313 2.339844-12.492187 10.679688-10.148437 18.625 9.082031 30.839844 24.324218 57.6875 43.757812 78.898438-56.425781-23.851563-106.195312-69.546875-113.109375-130.136719zm240.203125 334h-30v-30h30zm-120-38.789062v38.789062h-38.789062zm30-51.210938h30v90h-30zm120 0h30v90h-30zm98.785156 90h-38.785156v-38.785156zm-98.785156-120h-15c-8.285156 0-15 6.714844-15 15v45h-30v-45c0-8.285156-6.714844-15-15-15h-15v-35.003906c14.714844 1.984375 29.757812 3.003906 45 3.003906s30.285156-1.019531 45-3.003906zm0 0"/></svg>