<svg height="512pt" viewBox="-58 0 512 512.00051" width="512pt" xmlns="http://www.w3.org/2000/svg"><path d="m215.726562 309.945312h-79.359374v-71.007812c0-5.390625 4.367187-9.761719 9.757812-9.761719h30.554688zm0 0" fill="#4e5093"/><path d="m155.082031 43.308594c-49.144531 49.140625-49.144531 128.816406 0 177.960937 49.140625 49.140625 128.816407 49.140625 177.960938 0zm0 0" fill="#a7acd3"/><path d="m333.039062 221.261719c-12.695312 12.707031-39.234374 8.566406-69.292968-8.148438h-.011719c-5.8125-3.226562-11.761719-6.917969-17.769531-11.082031-2.628906-1.804688-5.265625-3.703125-7.914063-5.683594-10.402343-7.792968-20.878906-16.84375-31.035156-27.003906-10.167969-10.167969-19.222656-20.640625-27.003906-31.042969-1.980469-2.648437-3.886719-5.289062-5.695313-7.917969-4.148437-6.007812-7.855468-11.953124-11.082031-17.769531-16.714844-30.058593-20.855469-56.609375-8.148437-69.304687 10.066406-10.066406 28.851562-9.550782 51.199218-.566406 4.832032 1.9375 9.824219 4.28125 14.941406 6.992187 15.527344 8.238281 32.109376 19.929687 48.277344 34.484375 3.90625 3.507812 7.78125 7.183594 11.609375 11.019531 3.835938 3.828125 7.507813 7.714844 11.019531 11.609375 14.59375 16.21875 26.304688 32.84375 34.546876 48.410156 2.6875 5.0625 5.003906 10.015626 6.929687 14.808594 8.980469 22.34375 9.496094 41.128906-.570313 51.195313zm0 0" fill="#6163aa"/><g fill="#4e5093"><path d="m333.609375 170.0625c-3.652344 5.675781-7.925781 10.972656-12.75 15.78125-6.269531 6.273438-13.222656 11.550781-20.699219 15.75-11.1875 6.3125-23.527344 10.230469-36.414062 11.519531h-.011719c-5.8125-3.226562-11.761719-6.917969-17.769531-11.082031 1.359375-2.242188 3.867187-3.714844 6.660156-3.683594 10.472656.214844 20.648438-1.613281 30.109375-5.285156 10.097656-3.949219 19.394531-10.007812 27.359375-17.972656 4.964844-4.972656 9.246094-10.523438 12.71875-16.535156.910156-1.570313 2.292969-2.695313 3.867188-3.296876 2.6875 5.0625 5 10.015626 6.929687 14.804688zm0 0"/><path d="m221.222656 49.730469c-.628906 1.511719-1.738281 2.84375-3.269531 3.714843-6.058594 3.492188-11.679687 7.792969-16.683594 12.808594-7.976562 7.976563-14.046875 17.273438-17.980469 27.378906-3.675781 9.460938-5.5 19.640626-5.289062 30.09375.050781 2.820313-1.429688 5.308594-3.683594 6.65625-4.152344-6.007812-7.855468-11.953124-11.082031-17.769531 1.277344-12.890625 5.195313-25.230469 11.507813-36.414062 4.214843-7.480469 9.480468-14.441407 15.761718-20.710938 4.820313-4.820312 10.109375-9.09375 15.78125-12.746093 4.828125 1.933593 9.820313 4.28125 14.9375 6.988281zm0 0"/><path d="m339.707031 208.253906c-1.066406 5.203125-3.261719 9.605469-6.667969 13.011719-16.234374 16.234375-55.082031 4.960937-94.988281-24.921875-10.40625-7.789062-20.878906-16.847656-31.042969-27.007812-10.160156-10.164063-19.21875-20.636719-27-31.03125-29.886718-39.914063-41.164062-78.765626-24.929687-95 3.40625-3.40625 7.808594-5.601563 13.011719-6.664063-4.011719 19.578125 7.976562 50.453125 31.589844 81.984375 7.789062 10.398438 16.847656 20.871094 27.007812 31.03125 10.164062 10.164062 20.636719 19.21875 31.042969 27.011719 31.527343 23.613281 62.402343 35.597656 81.976562 31.585937zm0 0"/></g><path d="m313.882812 70.859375-21.75 35.988281-54.085937 89.496094c-10.398437-7.789062-20.875-16.84375-31.035156-27.003906-10.164063-10.160156-19.21875-20.636719-27.007813-31.039063l89.5-54.082031 35.988282-21.75c5.460937-3.296875 11.6875 2.929688 8.390624 8.390625zm0 0" fill="#c5ee09"/><path d="m246.382812 182.558594-8.332031 13.785156c-10.410156-7.792969-20.878906-16.84375-31.042969-27-10.15625-10.164062-19.21875-20.644531-27-31.042969l13.792969-8.332031c7.230469 9.378906 15.492188 18.792969 24.644531 27.9375 9.144532 9.152344 18.558594 17.414062 27.9375 24.652344zm0 0" fill="#84e507"/><path d="m332.109375 62.839844c0 10.558594-8.554687 19.113281-19.113281 19.113281-10.554688 0-19.113282-8.554687-19.113282-19.113281 0-10.554688 8.558594-19.113282 19.113282-19.113282 10.558594 0 19.113281 8.558594 19.113281 19.113282zm0 0" fill="#d82fea"/><path d="m27.332031 332.152344h337.742188v142.6875h-337.742188zm0 0" fill="#6163aa"/><path d="m348.257812 332.152344h16.816407v142.6875h-16.816407zm0 0" fill="#4e5093"/><path d="m27.332031 332.152344h168.871094v142.691406h-168.871094zm0 0" fill="#2de0c7"/><path d="m196.203125 371.011719v38.109375l-65.722656 65.722656h-38.109375zm0 0" fill="#9bf2e5"/><path d="m196.203125 336.671875v22.800781l-115.367187 115.371094h-22.804688zm0 0" fill="#9bf2e5"/><path d="m375.488281 335.527344h-358.566406c-5.394531 0-9.761719-4.367188-9.761719-9.761719v-10.53125c0-5.390625 4.367188-9.761719 9.761719-9.761719h358.566406c5.390625 0 9.761719 4.371094 9.761719 9.761719v10.53125c0 5.394531-4.371094 9.761719-9.761719 9.761719zm0 0" fill="#d82fea"/><path d="m90.023438 385.035156h-26.066407c-5.605469 0-10.152343-4.542968-10.152343-10.148437v-5.082031c0-5.605469 4.546874-10.148438 10.152343-10.148438h26.066407c5.605468 0 10.148437 4.542969 10.148437 10.148438v5.082031c0 5.605469-4.542969 10.148437-10.148437 10.148437zm0 0" fill="#d82fea"/><path d="m226.007812 451.214844c-4.203124 0-7.613281-3.40625-7.613281-7.609375v-81.34375c0-4.207031 3.410157-7.613281 7.613281-7.613281 4.203126 0 7.609376 3.40625 7.609376 7.613281v81.34375c.003906 4.203125-3.40625 7.609375-7.609376 7.609375zm0 0" fill="#4e5093"/><path d="m379.390625 491.792969h-363.773437v-12.394531c0-5.394532 4.371093-9.761719 9.761718-9.761719h344.25c5.390625 0 9.761719 4.367187 9.761719 9.761719zm0 0" fill="#d82fea"/><path d="m385.25 512h-375.488281c-5.390625 0-9.761719-4.371094-9.761719-9.761719v-2.636719c0-5.390624 4.371094-9.757812 9.761719-9.757812h375.488281c5.390625 0 9.757812 4.367188 9.757812 9.757812v2.636719c.003907 5.390625-4.367187 9.761719-9.757812 9.761719zm0 0" fill="#e667f9"/><path d="m160.347656 290.96875h-23.980468c-4.207032 0-7.613282-3.40625-7.613282-7.609375s3.40625-7.609375 7.613282-7.609375h23.980468c4.207032 0 7.613282 3.40625 7.613282 7.609375s-3.40625 7.609375-7.613282 7.609375zm0 0" fill="#d82fea"/><path d="m344.554688 39.113281c-1.953126 0-3.910157-.75-5.394532-2.246093-2.964844-2.980469-2.953125-7.800782.027344-10.765626l7.191406-7.144531c2.980469-2.964843 7.800782-2.953125 10.761719.03125 2.964844 2.980469 2.949219 7.800781-.03125 10.761719l-7.1875 7.148438c-1.484375 1.476562-3.425781 2.214843-5.367187 2.214843zm0 0" fill="#c5ee09"/><path d="m324.351562 25.011719c-.660156 0-1.332031-.085938-1.996093-.265625-4.058594-1.101563-6.457031-5.28125-5.355469-9.339844l2.652344-9.78125c1.097656-4.058594 5.28125-6.460938 9.335937-5.355469 4.058594 1.097657 6.453125 5.277344 5.355469 9.335938l-2.652344 9.785156c-.917968 3.390625-3.988281 5.621094-7.339844 5.621094zm0 0" fill="#c5ee09"/><path d="m358.535156 59.40625c-3.371094 0-6.449218-2.253906-7.355468-5.667969-1.074219-4.0625 1.34375-8.230469 5.410156-9.304687l9.800781-2.597656c4.054687-1.074219 8.226563 1.347656 9.304687 5.410156 1.074219 4.0625-1.34375 8.230468-5.410156 9.304687l-9.800781 2.597657c-.648437.171874-1.304687.257812-1.949219.257812zm0 0" fill="#c5ee09"/><path d="m174.742188 76.199219c2.335937 5.621093 5.1875 11.457031 8.546874 17.433593-3.675781 9.460938-5.5 19.640626-5.289062 30.09375.050781 2.820313-1.429688 5.308594-3.683594 6.65625-4.152344-6.007812-7.855468-11.953124-11.082031-17.769531 1.277344-12.890625 5.195313-25.230469 11.507813-36.414062zm0 0" fill="#383c7c"/><path d="m300.160156 201.59375c-11.1875 6.3125-23.527344 10.230469-36.414062 11.519531h-.011719c-5.8125-3.226562-11.761719-6.917969-17.769531-11.082031 1.359375-2.242188 3.867187-3.714844 6.660156-3.683594 10.472656.214844 20.648438-1.613281 30.109375-5.285156 5.976563 3.347656 11.8125 6.210938 17.425781 8.53125zm0 0" fill="#383c7c"/></svg>