<?xml version="1.0" encoding="utf-8"?>
<!-- Generator: Adobe Illustrator 16.0.0, SVG Export Plug-In . SVG Version: 6.00 Build 0)  -->
<!DOCTYPE svg PUBLIC "-//W3C//DTD SVG 1.1//EN" "http://www.w3.org/Graphics/SVG/1.1/DTD/svg11.dtd">
<svg version="1.1" id="Capa_1" xmlns="http://www.w3.org/2000/svg" xmlns:xlink="http://www.w3.org/1999/xlink" x="0px" y="0px"
	 width="38.398px" height="46.928px" viewBox="0 0 38.398 46.928" enable-background="new 0 0 38.398 46.928" xml:space="preserve">
<path d="M22.363,24.568l15.401,6.072l-0.389-4.902c-10.271-7.182-9.066-6.481-14.984-10.615V2.681c0-1.809-1.604-2.701-3.191-2.681
	c-1.587-0.021-3.19,0.872-3.19,2.681v12.44c-5.918,4.134-4.714,3.434-14.985,10.615l-0.39,4.903l15.401-6.072
	c0,0-0.042,15.343-0.006,15.581l-5.511,3.771v2.957l7.044-2.427h3.271l7.046,2.427V43.92l-5.513-3.771
	C22.405,39.909,22.363,24.568,22.363,24.568z"/>
</svg>
