<svg id="Capa_1" enable-background="new 0 0 512.001 512.001" height="512" viewBox="0 0 512.001 512.001" width="512" xmlns="http://www.w3.org/2000/svg"><g><path d="m376.999 82.581-5.355-16.516c-15.156-36.342-49.714-62.57-90.735-65.741-2.769-.214-5.568.177-8.392.177h-33.032c-59.29 0-90.839 47.564-90.839 106.855v41.29c0 13.683 11.092 24.774 24.774 24.774h173.42 8.258c13.682 0 24.774-11.092 24.774-24.774v-41.29c0-8.526-.994-16.821-2.873-24.775z" fill="#f6d190"/><path d="m371.64 66.064h-181.702c15.215-36.369 49.901-62.607 90.968-65.741-2.735-.209-5.605-.323-8.393-.323h-33.032c-44.659 0-82.949 27.27-99.128 66.066l-5.355 16.515c-1.878 7.953-2.873 16.247-2.873 24.774v41.29c0 13.683 11.092 24.774 24.774 24.774h8.258 16.516v-66.064c0-8.528 1.004-16.821 2.89-24.774h192.427c-1.343-5.684-3.141-11.223-5.35-16.517z" fill="#ecbd83"/><path d="m256.001 41.292c-9.121 0-16.516 7.394-16.516 16.516v8.258l16.516 16.516 16.516-16.516v-8.258c0-9.122-7.395-16.516-16.516-16.516z" fill="#dad8db"/><path d="m239.485 66.066h33.032v49.548h-33.032z" fill="#eceaec"/><path d="m135.001 82.582 49.564-.001c1.348-5.69 3.158-11.219 5.373-16.516l-49.584.001c-2.209 5.294-4.009 10.833-5.353 16.516z" fill="#e2a975"/><path d="m319.16 288.079c-3.397-4.291-5.353-9.678-5.353-15.381v-8.91h-115.613v8.91c0 5.691-1.948 11.069-5.332 15.355l19.139 54.949h87z" fill="#ecbd83"/><path d="m404.395 327.857-32.782-14.049-23.175-2.369-18.115-15.327-1.501-.643c-3.867-1.657-7.156-4.224-9.662-7.39l-46.643 17.471-9.13 18.26c-3.043 6.087-11.729 6.087-14.772 0l-9.13-18.26-46.623-17.497c-2.506 3.165-5.815 5.759-9.683 7.416l-1.501.643-20.344 18.723-20.946-1.027-32.781 14.049c-15.182 6.507-25.025 21.434-25.025 37.952v121.419c0 13.682 11.092 24.774 24.774 24.774h33.032l23.113-12.5h183l25.113 12.5h33.033c13.682 0 24.774-11.092 24.774-24.774v-121.42c-.001-16.517-9.844-31.445-25.026-37.951z" fill="#f6d190"/><path d="m181.678 296.112-41.29 17.696v66.064h41.29z" fill="#c38c66"/><path d="m330.323 296.112 41.291 17.696v66.064h-41.291z" fill="#c38c66"/><path d="m371.614 512.001h-231.226v-132.129c0-4.561 3.697-8.258 8.258-8.258h214.71c4.561 0 8.258 3.697 8.258 8.258z" fill="#e2a975"/><path d="m198.194 263.788c16.697 10.704 36.501 16.988 57.806 16.988s41.109-6.284 57.806-16.988v-32.56h-115.612z" fill="#e2a975"/><path d="m190.667 140.389v33.032c0 9.247 12.367 87.979 60.1 90.69 1.732.098 3.477.148 5.233.148 50.169 0 90.839-39.925 90.839-86.781l-42.839-37.09h-113.333z" fill="#6f6571"/><path d="m165.162 140.651v33.032c0 48.415 37.868 87.722 85.606 90.428-24.143-11.233-42.488-32.572-49.471-58.737-2.042-7.653 3.679-15.175 11.6-15.175h8.067c10.95 0 21.452-4.35 29.195-12.092l5.841-5.841 5.842 5.841c7.743 7.742 18.244 12.092 29.194 12.092h22.771c12.696 0 24.256-4.84 33.033-12.72v-36.828z" fill="#5d5360"/><path d="m214.71 487.227h-16.516c-13.682 0-24.774-11.092-24.774-24.774v-24.774c0-4.561 3.697-8.258 8.258-8.258h49.548c4.561 0 8.258 3.697 8.258 8.258v24.774c.001 13.682-11.091 24.774-24.774 24.774z" fill="#c38c66"/><path d="m82.581 462.453c-9.122 0-16.516-7.395-16.516-16.516v-57.807c0-9.122 7.395-16.516 16.516-16.516 9.122 0 16.516 7.395 16.516 16.516v57.806c0 9.123-7.394 16.517-16.516 16.517z" fill="#ecbd83"/><path d="m429.42 462.453c9.122 0 16.516-7.395 16.516-16.516v-57.807c0-9.122-7.395-16.516-16.516-16.516-9.122 0-16.516 7.395-16.516 16.516v57.806c0 9.123 7.394 16.517 16.516 16.517z" fill="#ffe09f"/><path d="m346.839 140.389c0 18.243-14.789 33.032-33.032 33.032h-22.77c-6.571 0-12.872-2.61-17.518-7.256l-5.839-5.839c-6.45-6.45-16.907-6.45-23.357 0l-5.839 5.839c-4.646 4.646-10.947 7.256-17.518 7.256h-22.77c-18.243 0-33.032-14.789-33.032-33.032v-16.516c0-9.122 7.395-16.516 16.516-16.516h148.645c9.122 0 16.516 7.395 16.516 16.516z" fill="#c38c66"/><path d="m189.936 123.872c-4.561 0-8.258 3.697-8.258 8.258v8.258c0 9.122 7.395 16.516 16.516 16.516h22.771c2.19 0 4.291-.87 5.839-2.419l5.839-5.839c7.244-7.244 17.261-10.709 27.656-9.405 7.614.956 14.55 4.895 19.976 10.321l4.286 4.286c2.19 2.19 4.286 3.056 6.475 3.056h22.771c9.122 0 16.516-7.395 16.516-16.516v-8.258c0-4.561-3.697-8.258-8.258-8.258z" fill="#e2a975"/><path d="m231.227 404.647h-49.548c-4.561 0-8.258 3.697-8.258 8.258v24.774h66.065v-24.774c-.001-4.561-3.699-8.258-8.259-8.258z" fill="#f6d190"/><path d="m313.807 487.227h-16.516c-13.682 0-24.774-11.092-24.774-24.774v-24.774c0-4.561 3.697-8.258 8.258-8.258h49.548c4.561 0 8.258 3.697 8.258 8.258v24.774c0 13.682-11.091 24.774-24.774 24.774z" fill="#c38c66"/><path d="m330.323 404.647h-49.548c-4.561 0-8.258 3.697-8.258 8.258v24.774h66.065v-24.774c0-4.561-3.698-8.258-8.259-8.258z" fill="#f6d190"/></g></svg>