<svg id="Capa_1" enable-background="new 0 0 512 512" height="512" viewBox="0 0 512 512" width="512" xmlns="http://www.w3.org/2000/svg"><g><path d="m256 355.053c97.534 0 182.075-80.616 182.075-181.906-4.645-93.858-80.287-169.059-174.333-172.982-2.57-.113-5.151-.165-7.742-.165s-5.172.052-7.742.165c-94.046 3.923-169.688 79.124-174.334 172.982 0 102.053 84.542 181.906 182.076 181.906z" fill="#c1b455"/><path d="m144.823 502.419h222.354c5.4 0 9.778-8.175 9.778-18.778v-9.342c0-5.4-4.378-9.778-9.778-9.778h-222.354c-5.4 0-9.778 4.378-9.778 9.778v9.342c0 9.783 4.378 18.778 9.778 18.778z" fill="#0a789b"/><path d="m228.48 381.148v83.373h55.04v-83.373l-27.52-6.934z" fill="#08475e"/><path d="m256 355.634-27.52 6.934v18.581c8.976 1.359 18.165 2.066 27.52 2.066s18.544-.707 27.52-2.066v-18.581z" fill="#05303d"/><g fill="#b2a34b"><path d="m248.258 345.88c-94.014-3.929-169.633-79.042-174.341-172.853-.155 3.077-.234 6.175-.234 9.29 0 98.096 77.476 178.084 174.575 182.142l9-9.197z"/><path d="m438.083 173.027c-4.708 93.811-80.327 168.924-174.341 172.853l-9 9.382 9 9.197c97.098-4.058 174.575-84.046 174.575-182.142 0-3.116-.079-6.213-.234-9.29z"/></g><path d="m437.986 174.576h-45.551c-3.884-69.203-59.491-124.81-128.693-128.694v-45.717c-2.57-.113-5.151-.165-7.742-.165s-5.172.052-7.742.165v45.716c-69.203 3.884-124.809 59.491-128.693 128.694h-45.55c0 5.18 0 10.557 1.567 15.484h43.983c3.884 69.202 59.491 124.809 128.693 128.693v27.137l7.742 9.165 7.742-9.165v-27.137c69.202-3.884 124.809-59.491 128.693-128.693h43.983c1.657-4.12 1.72-10.43 1.568-15.483zm-189.728 128.662c-60.661-3.844-109.335-52.518-113.179-113.179h43.631c3.645 36.663 32.885 65.903 69.548 69.548zm0-59.226c-28.112-3.509-50.444-25.84-53.952-53.952h53.952zm0-69.436h-53.953c3.509-28.113 25.84-50.445 53.953-53.953zm0-69.549c-36.663 3.645-65.903 32.886-69.548 69.549h-43.631c3.844-60.661 52.518-109.336 113.179-113.18zm15.484 15.595c28.112 3.509 50.444 25.841 53.953 53.953h-53.953zm0 69.437h53.953c-3.509 28.112-25.841 50.443-53.953 53.952zm0 113.179v-43.631c36.663-3.645 65.903-32.885 69.548-69.548h43.631c-3.844 60.661-52.518 109.335-113.179 113.179zm69.548-128.662c-3.645-36.663-32.885-65.904-69.548-69.549v-43.632c60.661 3.844 109.335 52.519 113.179 113.18h-43.631z" fill="#f7e471"/><g fill="#f1cb66"><path d="m437.986 174.576c-.306 5.223-.831 10.388-1.568 15.484h1.734c.114-2.57.165-5.151.165-7.742s-.052-5.172-.165-7.742z"/><path d="m248.258 345.889v18.581c2.57.113 5.151.165 7.742.165s5.172-.052 7.742-.165v-18.581c-2.57.114-5.151.165-7.742.165s-5.172-.051-7.742-.165z"/><path d="m74.014 174.576h-.167c-.113 2.57-.165 5.151-.165 7.742s.052 5.172.165 7.742h1.734c-.736-5.097-1.261-10.261-1.567-15.484z"/></g><path d="m367.177 493.419h-222.354c-5.4 0-9.778-4.378-9.778-9.778v18.581c0 5.4 4.378 9.778 9.778 9.778h222.354c5.4 0 9.778-4.378 9.778-9.778v-18.581c0 5.401-4.378 9.778-9.778 9.778z" fill="#0a617d"/></g></svg>